[Header]
FileType HTR
DataType HTRS
FileVersion 1
NumSegments 28
NumFrames 4
DataFrameRate 24
EulerRotationOrder ZYX
CalibrationUnits mm
RotationUnits Degrees
GlobalAxisofGravity Y
BoneLengthAxis Y
ScaleFactor 1.0
[SegmentNames&Hierarchy]
waist	GLOBAL
chest	waist
head	chest
joint2	chest
right_shoulder1	joint2
right_elbow1	right_shoulder1
right_wrist1	right_elbow1
right_hand1	right_wrist1
right_finger3	right_hand1
right_finger4	right_hand1
right_finger5	right_hand1
joint3	chest
right_shoulder2	joint3
right_elbow2	right_shoulder2
right_wrist2	right_elbow2
right_hand2	right_wrist2
right_finger6	right_hand2
right_finger7	right_hand2
right_finger8	right_hand2
Center_pelvis	waist
left_pelvs	Center_pelvis
left_leg	left_pelvs
left_knee	left_leg
left_foot	left_knee
right_pelvis	Center_pelvis
right_leg	right_pelvis
right_knee	right_leg
right_foot	right_knee
[BasePosition]
waist	0	0	0	179.9999991	0	91.33221985	1
chest	0	0	0	-2.307808268e-010	-1.984983424e-008	1.332219854	1
head	0	0	0	180	-1.481061187e-024	90	1
joint2	0	0	0	4.615476202e-010	-1.707085745e-006	90	1
right_shoulder1	0	0	0	1.916575325e-008	-1.983803253e-008	-88.02506599	1
right_elbow1	0	0	0	-180	-1.948815659e-008	-12.92899665	1
right_wrist1	0	0	0	3.256551172e-010	1.942478841e-008	1.920938916	1
right_hand1	0	0	0	136.2194085	85.17676588	-133.4832578	1
right_finger3	0	0	0	154.4596717	79.84057755	147.6247455	1
right_finger4	0	0	0	154.4596717	79.84057755	147.6247455	1
right_finger5	0	0	0	154.4596717	79.84057755	147.6247455	1
joint3	0	0	0	-180	-1.89575832e-022	90	1
right_shoulder2	0	0	0	6.774897105e-015	-7.012540931e-015	-88.02506599	1
right_elbow2	0	0	0	-180	-6.888863384e-015	-12.92899665	1
right_wrist2	0	0	0	-1.240805042e-012	-7.401196581e-011	1.920938916	1
right_hand2	0	0	0	136.2194085	85.17676588	-133.4832578	1
right_finger6	0	0	0	154.4596717	79.84057755	147.6247455	1
right_finger7	0	0	0	154.4596717	79.84057755	147.6247455	1
right_finger8	0	0	0	154.4596717	79.84057755	147.6247455	1
Center_pelvis	0	0	0	-180	-8.537716493e-007	89.87586122	1
left_pelvs	0	0	0	0	0	-1.456358634	1
left_leg	0	0	0	179.9999991	0	88.69804733	1
left_knee	0	0	0	-180	-7.863991589e-009	-2.076172838	1
left_foot	0	0	0	179.9999985	-3.055580289e-010	-90.77422016	1
right_pelvis	0	0	0	0	0	-2.39554958	1
right_leg	0	0	0	0	0	-87.75885638	1
right_knee	0	0	0	179.9999991	3.702652968e-022	-2.076172838	1
right_foot	0	0	0	180	-7.405305937e-025	-90.77422016	1
[waist]
7	0	-3.152148962	0	1.823863029	-13.80161953	1.340749979	1.0
8	0	-3.152148962	0	1.823863029	-13.80161953	1.340749979	1.0
9	0	-3.152148962	0	1.823863029	-13.80161953	1.340749979	1.0
10	0	-3.152148962	0	1.823863029	-13.80161953	1.340749979	1.0
[chest]
7	20.11948586	-0.4839034379	-11.78422546	-3.618820667	28.05298996	-2.790826321	1.0
8	21.07123947	-0.4998092353	-12.27885342	-9.947428703	28.69726753	-2.769265413	1.0
9	21.84008789	-0.512658298	-12.67842484	-15.05983639	29.21772957	-2.751848221	1.0
10	22.38759995	-0.5218083262	-12.96296692	-18.70047951	29.58835983	-2.739444971	1.0
[head]
7	20.62318993	0.1433748007	1.49219501	2.42925477	-1.359207034	-1.093142033	1.0
8	20.62318993	0.1433748007	1.49219501	6.719566822	-1.359207034	-1.093142033	1.0
9	20.62318993	0.1433748007	1.49219501	10.18538666	-1.359207034	-1.093142033	1.0
10	20.62318993	0.1433748007	1.49219501	12.65346432	-1.359207034	-1.093142033	1.0
[joint2]
7	-1.657010078	17.01290894	0.01287616976	-18.13886261	-0.6024904847	-1.013093948	1.0
8	-1.657010078	17.01290894	0.01287616976	-25.97825241	-0.7543492913	-1.268446088	1.0
9	-1.657010078	17.01290894	0.01287616976	-32.31110382	-0.8770246506	-1.474725842	1.0
10	-1.657010078	17.01290894	0.01287616976	-36.82084656	-0.9643841386	-1.621621609	1.0
[right_shoulder1]
7	14.91590023	0.6211000085	0.9477797747	-1.523018599	-16.16260338	-6.112993717	1.0
8	14.91590023	0.6211000085	0.9477797747	-0.9857857823	-21.74135971	-3.956683397	1.0
9	14.91590023	0.6211000085	0.9477797747	-0.5517959595	-26.24801636	-2.214762926	1.0
10	14.91590023	0.6211000085	0.9477797747	-0.242743358	-29.45729446	-0.9743075967	1.0
[right_elbow1]
7	-13.64346027	1.083028078	-0.5017899871	4.903915882	22.01849937	0.2303846031	1.0
8	-13.64346027	1.083028078	-0.5017899871	4.903915882	22.01849937	0.2303846031	1.0
9	-13.64346027	1.083028078	-0.5017899871	4.903915882	22.01849937	0.2303846031	1.0
10	-13.64346027	1.083028078	-0.5017899871	4.903915882	22.01849937	0.2303846031	1.0
[right_wrist1]
7	-11.07324982	0.004849368241	0.6145499945	-4.115298748	16.69276047	-16.79538345	1.0
8	-11.07324982	0.004849368241	0.6145499945	-6.112771988	18.02303696	-23.00350952	1.0
9	-11.07324982	0.004849368241	0.6145499945	-7.726379871	19.09766579	-28.01858521	1.0
10	-11.07324982	0.004849368241	0.6145499945	-8.875461578	19.86292839	-31.58991814	1.0
[right_hand1]
7	-7.870647907	-0.6475094557	0.1588414907	15.80465794	24.53041077	20.84940147	1.0
8	-7.870647907	-0.6475094557	0.1588414907	18.43411827	23.21242332	21.79602051	1.0
9	-7.870647907	-0.6475094557	0.1588414907	20.55825996	22.14771652	22.56072235	1.0
10	-7.870647907	-0.6475094557	0.1588414907	22.07090569	21.38952065	23.10527992	1.0
[right_finger3]
7	10.07660961	3.347558022	-1.489187002	-84.28975677	13.1826601	87.76701355	1.0
8	10.07660961	3.347558022	-1.489187002	-84.28975677	13.1826601	87.76701355	1.0
9	10.07660961	3.347558022	-1.489187002	-84.28975677	13.1826601	87.76701355	1.0
10	10.07660961	3.347558022	-1.489187002	-84.28975677	13.1826601	87.76701355	1.0
[right_finger4]
7	-1.201135993	3.376283169	11.27150059	-190.2575073	16.25144958	124.4265976	1.0
8	-1.201135993	3.376283169	11.27150059	-190.2575073	16.25144958	124.4265976	1.0
9	-1.201135993	3.376283169	11.27150059	-190.2575073	16.25144958	124.4265976	1.0
10	-1.201135993	3.376283169	11.27150059	-190.2575073	16.25144958	124.4265976	1.0
[right_finger5]
7	-6.853637218	4.493112087	-5.936322212	34.39846039	4.028532028	79.4876709	1.0
8	-6.853637218	4.493112087	-5.936322212	34.39846039	4.028532028	79.4876709	1.0
9	-6.853637218	4.493112087	-5.936322212	34.39846039	4.028532028	79.4876709	1.0
10	-6.853637218	4.493112087	-5.936322212	34.39846039	4.028532028	79.4876709	1.0
[joint3]
7	-1.657010078	-17.01288986	0.01287566032	-9.261073112	-0.4306910634	-0.723939836	1.0
8	-1.657010078	-17.01288986	0.01287566032	-1.421707749	-0.2787681818	-0.4685757756	1.0
9	-1.657010078	-17.01288986	0.01287566032	4.911126614	-0.1560411602	-0.2622863948	1.0
10	-1.657010078	-17.01288986	0.01287566032	9.420859337	-0.0686448589	-0.1153837517	1.0
[right_shoulder2]
7	-14.91590023	-0.6211000085	-0.9477797747	-2.131171703	-9.844412804	-8.555016518	1.0
8	-14.91590023	-0.6211000085	-0.9477797747	-2.668337107	-4.265651226	-10.71132278	1.0
9	-14.91590023	-0.6211000085	-0.9477797747	-3.102272987	0.2410105169	-12.45324039	1.0
10	-14.91590023	-0.6211000085	-0.9477797747	-3.411287069	3.450291157	-13.69369411	1.0
[right_elbow2]
7	12.90563202	0.2415348291	1.744680524	7.431889057	27.58552933	1.157387018	1.0
8	12.71965885	0.5753933191	2.057953358	7.431889057	27.58552933	1.157387018	1.0
9	12.56942558	0.8450924158	2.311022997	7.431889057	27.58552933	1.157387018	1.0
10	12.46243954	1.037150383	2.491238832	7.431889057	27.58552933	1.157387018	1.0
[right_wrist2]
7	11.3734808	-5.659012794	-0.5602906942	-1.852759838	15.18636227	-9.764438629	1.0
8	11.3734808	-5.659012794	-0.5602906942	0.1447338015	13.85604382	-3.55637598	1.0
9	11.3734808	-5.659012794	-0.5602906942	1.758358598	12.78138065	1.45865047	1.0
10	11.3734808	-5.659012794	-0.5602906942	2.907451868	12.01609039	5.029947758	1.0
[right_hand2]
7	8.313047409	0.02588134073	-0.2132965922	12.8266592	26.02262115	19.77762222	1.0
8	8.313047409	0.02588134073	-0.2132965922	10.19708729	27.34059906	18.83099556	1.0
9	8.313047409	0.02588134073	-0.2132965922	8.072854042	28.40529442	18.06628609	1.0
10	8.313047409	0.02588134073	-0.2132965922	6.560146809	29.16348457	17.5217247	1.0
[right_finger6]
7	-10.07660961	-3.347558022	1.489187002	-83.6856308	28.25860023	89.45963287	1.0
8	-10.07660961	-3.347558022	1.489187002	-83.6856308	28.25860023	89.45963287	1.0
9	-10.07660961	-3.347558022	1.489187002	-83.6856308	28.25860023	89.45963287	1.0
10	-10.07660961	-3.347558022	1.489187002	-83.6856308	28.25860023	89.45963287	1.0
[right_finger7]
7	1.201135993	-3.376283169	-11.27150059	-196.8155975	9.285179138	95.4122467	1.0
8	1.201135993	-3.376283169	-11.27150059	-196.8155975	9.285179138	95.4122467	1.0
9	1.201135993	-3.376283169	-11.27150059	-196.8155975	9.285179138	95.4122467	1.0
10	1.201135993	-3.376283169	-11.27150059	-196.8155975	9.285179138	95.4122467	1.0
[right_finger8]
7	6.853637218	-4.493112087	5.936322212	33.30503082	-9.988982201	100.1356964	1.0
8	6.853637218	-4.493112087	5.936322212	33.30503082	-9.988982201	100.1356964	1.0
9	6.853637218	-4.493112087	5.936322212	33.30503082	-9.988982201	100.1356964	1.0
10	6.853637218	-4.493112087	5.936322212	33.30503082	-9.988982201	100.1356964	1.0
[Center_pelvis]
7	-5.61697197	-0.3765999973	2.046987057	0	0	0	1.0
8	-5.61697197	-0.3765999973	2.046987057	0	0	0	1.0
9	-5.61697197	-0.3765999973	2.046987057	0	0	0	1.0
10	-5.61697197	-0.3765999973	2.046987057	0	0	0	1.0
[left_pelvs]
7	11.08985996	-0.01586684026	-0.09214995801	0.7086518407	-0.3210403621	-11.80261135	1.0
8	11.08985996	-0.01586684026	-0.09214995801	3.380443096	-0.2077959329	-7.639334202	1.0
9	11.08985996	-0.01586684026	-0.09214995801	5.53878212	-0.1163142473	-4.276134968	1.0
10	11.08985996	-0.01586684026	-0.09214995801	7.075777054	-0.05116839334	-1.881136417	1.0
[left_leg]
7	8.450808053e-008	-5.682914734	0.3641465902	0	22.32854271	-13.15992069	1.0
8	8.450808053e-008	-5.682914734	0.3641465902	0	31.90282822	-8.517863274	1.0
9	8.450808053e-008	-5.682914734	0.3641465902	0	39.63717651	-4.767893791	1.0
10	8.450808053e-008	-5.682914734	0.3641465902	0	45.14495087	-2.097468376	1.0
[left_knee]
7	-10.6974802	0.03457061946	-6.811455844e-009	0	-0.9713259339	0	1.0
8	-10.6974802	0.03457061946	-6.811455844e-009	0	-2.135259628	0	1.0
9	-10.6974802	0.03457061946	-6.811455844e-009	0	-3.075514317	0	1.0
10	-10.6974802	0.03457061946	-6.811455844e-009	0	-3.745087624	0	1.0
[left_foot]
7	-14.54718971	-0.01193540078	1.933258886e-009	2.626969337	0	0	1.0
8	-14.54718971	-0.01193540078	1.933258886e-009	5.774850368	0	0	1.0
9	-14.54718971	-0.01193540078	1.933258886e-009	8.317786217	0	0	1.0
10	-14.54718971	-0.01193540078	1.933258886e-009	10.1286602	0	0	1.0
[right_pelvis]
7	-10.58689976	0.4465442896	0.2088862956	6.815876961	-0.02872822434	-12.32726097	1.0
8	-10.58689976	0.4465442896	0.2088862956	0.8859735131	-0.01859457232	-7.978917599	1.0
9	-10.58689976	0.4465442896	0.2088862956	-3.904349327	-0.01040835492	-4.466217995	1.0
10	-10.58689976	0.4465442896	0.2088862956	-7.315630913	-0.00457879249	-1.964756608	1.0
[right_leg]
7	0.09169664979	-5.593488693	0.06310816854	0	0.6826568842	0	1.0
8	0.09169664979	-5.593488693	0.06310816854	0	-17.83900261	0	1.0
9	0.09169664979	-5.593488693	0.06310816854	0	-32.80125809	0	1.0
10	0.09169664979	-5.593488693	0.06310816854	0	-43.45616913	0	1.0
[right_knee]
7	10.69750977	-0.03459575027	-4.718447855e-015	26.40340614	-44.7910881	-11.81272411	1.0
8	10.69750977	-0.03459575027	-4.718447855e-015	30.16243744	-43.27320862	-9.679790497	1.0
9	10.69750977	-0.03459575027	-4.718447855e-015	33.19906998	-42.04702759	-7.956753254	1.0
10	10.69750977	-0.03459575027	-4.718447855e-015	35.36151886	-41.17383957	-6.729745388	1.0
[right_foot]
7	14.54718971	0.01191106997	1.774880104e-010	-22.23920441	18.62354851	-6.783704281	1.0
8	14.54718971	0.01191106997	1.774880104e-010	-18.13850594	23.31764603	-8.493549347	1.0
9	14.54718971	0.01191106997	1.774880104e-010	-14.82586002	27.10965538	-9.874804497	1.0
10	14.54718971	0.01191106997	1.774880104e-010	-12.46686077	29.81001663	-10.85842228	1.0
[EndOfFile]
